<?xml version="1.0" encoding="utf-8"?>
<!-- Generator: Adobe Illustrator 24.1.2, SVG Export Plug-In . SVG Version: 6.00 Build 0)  -->
<svg version="1.1" id="Layer_1" xmlns="http://www.w3.org/2000/svg" xmlns:xlink="http://www.w3.org/1999/xlink" x="0px" y="0px"
	 viewBox="0 0 5128.7 906.4" style="enable-background:new 0 0 5128.7 906.4;" xml:space="preserve">
<style type="text/css">
	.st0{fill:#657987;}
	.st1{fill:url(#SVGID_1_);}
	.st2{fill:#FFFFFF;}
	.st3{fill:url(#SVGID_2_);}
	.st4{fill:url(#SVGID_3_);}
	.st5{fill:url(#SVGID_4_);}
	.st6{fill:url(#SVGID_5_);}
	.st7{fill:url(#SVGID_6_);}
	.st8{fill:url(#SVGID_7_);}
	.st9{fill:url(#SVGID_8_);}
	.st10{fill:url(#SVGID_9_);}
	.st11{fill:url(#SVGID_10_);}
	.st12{fill:url(#SVGID_11_);}
	.st13{fill:url(#SVGID_12_);}
	.st14{fill:url(#SVGID_13_);}
	.st15{fill:url(#SVGID_14_);}
	.st16{fill:url(#SVGID_15_);}
	.st17{fill:url(#SVGID_16_);}
	.st18{fill:url(#SVGID_17_);}
	.st19{fill:url(#SVGID_18_);}
</style>
<path class="st0" d="M854.7,548.1c0.1-13,1.4-26,3.9-38.7L908,230.4c23.2-131.7,103.6-188.9,260.5-188.9c64.9,0,123,10.7,186,28.1
	l-32,122c-54.2-11.6-122-21.3-168.5-21.3c-68.8,0-96.8,23.2-108.5,91l-39.7,224.7c-1.7,9.9-2.7,20-2.9,30c0,44.6,25.2,61,79.4,61
	c46.5,0,109.4-5.8,167.6-18.4l4.8,122c-51.3,14.5-123,25.2-194.7,25.2C917.6,705.9,854.7,638.1,854.7,548.1z"/>
<path class="st0" d="M1672.1,376.6c1-5.8,1.9-11.6,1.9-15.5c0-9.7-4.8-13.6-18.4-13.6c-25.2,0-85.2,25.2-122,44.6l-53.3,304.1
	h-136.6L1461,31.8l139.5-19.4l-43.6,249.9c57.1-29.1,121.1-47.5,172.4-47.5c63,0,86.2,35.8,86.2,95.9c0,16.5-1,34.9-4.8,54.2
	l-58.1,331.2h-136.6L1672.1,376.6z"/>
<path class="st0" d="M2138,696.2l-3.9-40.7c-32.9,25.2-82.3,50.4-150.1,50.4c-102.7,0-123-62-104.6-167.6l22.3-126.9
	c19.4-112.3,63.9-195.6,249.9-195.6c49.4,0,114.3,8.7,180.1,29.1l-78.4,451.3L2138,696.2z M2014,552.9c-3.9,25.2,1.9,34.9,26.1,34.9
	c34.9,0,72.6-20.3,103.6-46.5l35.8-204.4c-18.4-3.9-38.7-4.8-53.3-4.8c-70.7,0-79.4,34.9-88.1,80.4L2014,552.9z"/>
<path class="st0" d="M2691,338.9c-60,32.9-82.3,45.5-136.6,79.4l-49.4,278h-136.6l80.4-460l120.1-20.3l-2.9,63.9
	c45.5-27.1,82.3-46.5,123-63.9L2691,338.9z"/>
<path class="st0" d="M2886.6,224.6l3.9,40.7c33.9-28.1,82.3-50.4,150.1-50.4c102.7,0,127.8,62,109.4,167.6l-22.3,126.9
	c-19.4,112.4-48.4,196.6-247,196.6c-14.5,0-44.6-1.9-57.1-4.8l-32.9,186l-139.5,19.4l120.1-681.8H2886.6z M3016.4,366
	c4.8-25.2-1.9-36.8-26.1-36.8c-48.4,0-83.3,25.2-109.4,48.4L2844,587.8c15.5,2.9,33.9,3.9,53.3,3.9c70.7,0,85.2-37.8,93.9-83.3
	L3016.4,366z"/>
<path class="st0" d="M3185.9,674.9l26.1-100.7c35.8,12.6,76.5,24.2,127.8,24.2c45.5,0,48.4-13.6,52.3-35.8c3.9-21.3-9.7-32.9-63-61
	c-98.8-52.3-102.7-87.2-90.1-157.9c18.4-101.7,48.4-128.8,179.2-128.8c44.6,0,101.7,9.7,140.4,22.3l-22.3,102.7
	c-34.9-9.7-86.2-17.4-119.1-17.4c-40.7,0-46.5,4.8-51.3,30c-3.9,22.3,1,27.1,46.5,51.3c108.5,58.1,124.9,78.4,111.4,153
	c-19.4,106.5-50.4,149.1-191.8,149.1C3288.5,705.9,3227.5,693.3,3185.9,674.9z"/>
<path class="st0" d="M3810.6,334l-41.6,235.3c-1,4.8-1.9,9.7-1.9,12.6c0,6.8,3.9,9.7,13.6,9.7c23.2,0,49.4-9.7,73.6-19.4l27.1,94.9
	c-38.7,21.3-94.9,38.7-150.1,38.7c-68.8,0-105.6-32.9-105.6-89.1c0.2-6.8,0.8-13.6,1.9-20.3L3674,334h-69.7l19.4-109.4h69.7
	l19.4-113.3l140.4-19.4l-23.2,132.7h112.3L3915.2,334L3810.6,334L3810.6,334z"/>
<path class="st0" d="M4408.1,539.3h-269.2l-80.4,156.9h-85.2l324.4-645h116.2l100.7,645h-83.3L4408.1,539.3z M4171.8,469.6h225.7
	l-49.4-362.2L4171.8,469.6z"/>
<path class="st0" d="M4898.2,461.9h-161.7l-41.6,234.4h-81.4l114.3-645h230.5c121.1,0,170.5,48.4,170.5,126.9
	c0,11.7-1,23.3-2.9,34.9l-16.5,93c-13.6,77.5-39.7,122-127.8,145.3l125.9,245h-89.1L4898.2,461.9z M5044.4,213
	c1.8-8.9,2.7-18,2.9-27.1c0-46.5-29.1-62-94.9-62h-156.9L4749,390.2h156.9c79.4,0,111.4-23.2,123-90.1L5044.4,213z"/>
<linearGradient id="SVGID_1_" gradientUnits="userSpaceOnUse" x1="6829.7837" y1="7865.8271" x2="6702.2397" y2="8108.2544" gradientTransform="matrix(-0.271 0.578 -0.437 -0.205 5894.9067 -1817.329)">
	<stop  offset="0" style="stop-color:#F6D27B"/>
	<stop  offset="0.282" style="stop-color:#D9B86B"/>
	<stop  offset="0.744" style="stop-color:#B39656"/>
	<stop  offset="1" style="stop-color:#A68B50"/>
</linearGradient>
<polygon class="st1" points="674.4,456.1 511.2,531.4 509.7,420.4 "/>
<polygon class="st2" points="674.4,455.7 520.5,420.9 508,429.6 509.5,533.1 513.4,531.4 511.7,430.4 519.8,424.3 670.3,457.6 
	674.1,456.7 "/>
<linearGradient id="SVGID_2_" gradientUnits="userSpaceOnUse" x1="689.212" y1="516.029" x2="689.212" y2="177.795" gradientTransform="matrix(1 0 0 1 -1 -170.42)">
	<stop  offset="0" style="stop-color:#A68B50"/>
	<stop  offset="0.58" style="stop-color:#D0B066"/>
	<stop  offset="1" style="stop-color:#F6D27B"/>
</linearGradient>
<polygon class="st3" points="575.1,18.4 801.4,298.3 662.5,356.6 "/>
<path class="st2" d="M578.3,24.7l220.7,273l-135.4,56.8L578.3,24.7 M571.9,12.1l3.5,13.4l85.3,329.9l0.9,3.4l3.2-1.3l135.4-56.8
	l3.7-1.5l-2.5-3.1l-220.7-273L571.9,12.1L571.9,12.1z"/>
<linearGradient id="SVGID_3_" gradientUnits="userSpaceOnUse" x1="2445.6545" y1="-2822.6956" x2="2285.9358" y2="-3196.8525" gradientTransform="matrix(0.546 -0.838 0.838 0.546 1718.038 3789.301)">
	<stop  offset="0" style="stop-color:#A68B50"/>
	<stop  offset="0.58" style="stop-color:#D0B066"/>
	<stop  offset="1" style="stop-color:#F6D27B"/>
</linearGradient>
<polygon class="st4" points="267.5,248.8 573.9,16.3 661.7,356.3 "/>
<path class="st2" d="M573,18.9l86.6,335.3l-388.8-106L573,18.9 M574.7,13.8l-3.6,2.7L269,245.7l-4.9,3.7l5.9,1.6l388.8,106l5,1.4
	l-1.3-5L575.9,18.2L574.7,13.8z"/>
<linearGradient id="SVGID_4_" gradientUnits="userSpaceOnUse" x1="4524.1538" y1="4530.6104" x2="4249.9258" y2="4267.0576" gradientTransform="matrix(-2.000000e-02 1 -1 -2.000000e-02 4829.311 -4242.7139)">
	<stop  offset="0" style="stop-color:#A68B50"/>
	<stop  offset="0.58" style="stop-color:#D0B066"/>
	<stop  offset="1" style="stop-color:#F6D27B"/>
</linearGradient>
<polygon class="st5" points="119.3,90.1 572.7,16.2 266.9,248.4 "/>
<path class="st2" d="M567,18.6L267.1,246.4L122.3,91.1L567,18.6 M578.4,13.7l-11.9,1.9L121.8,88.1l-5.5,0.9l3.8,4.1l144.8,155.3
	l1.8,2l2.2-1.6L568.8,21L578.4,13.7L578.4,13.7z"/>
<linearGradient id="SVGID_5_" gradientUnits="userSpaceOnUse" x1="6544.9565" y1="-2811.6455" x2="6855.2241" y2="-2440.2883" gradientTransform="matrix(-0.644 -0.765 0.765 -0.644 6478.022 3775.019)">
	<stop  offset="0" style="stop-color:#A68B50"/>
	<stop  offset="0.58" style="stop-color:#D0B066"/>
	<stop  offset="1" style="stop-color:#F6D27B"/>
</linearGradient>
<polygon class="st6" points="119.7,91.1 266.8,249.4 18.3,564.6 "/>
<path class="st2" d="M120.5,94.3l144.3,155.2L21.1,558.6L120.5,94.3 M118.8,88l-1.2,5.6L18.1,558l-2.7,12.6l8-10.1l243.8-309.2
	l1.6-2l-1.8-1.9L122.7,92.2L118.8,88z"/>
<linearGradient id="SVGID_6_" gradientUnits="userSpaceOnUse" x1="959.5962" y1="-2529.9119" x2="1252.9731" y2="-2407.8933" gradientTransform="matrix(0.674 -0.738 0.738 0.674 1331.743 3186.1069)">
	<stop  offset="0" style="stop-color:#A68B50"/>
	<stop  offset="0.58" style="stop-color:#D0B066"/>
	<stop  offset="1" style="stop-color:#F6D27B"/>
</linearGradient>
<polygon class="st7" points="15,566.1 379.2,595.5 405.7,887.1 "/>
<path class="st2" d="M19.7,568l358.1,28.9l26,286.7L19.7,568 M10.4,564.2l7.4,6.1L401.9,886l5.5,4.6l-0.6-7.1l-26-286.7l-0.2-2.5
	L378,594L19.9,565L10.4,564.2L10.4,564.2z"/>
<linearGradient id="SVGID_7_" gradientUnits="userSpaceOnUse" x1="3067.2927" y1="-3312.3706" x2="3329.1248" y2="-3207.2292" gradientTransform="matrix(0.227 -0.974 0.974 0.227 3043.3811 4429.3223)">
	<stop  offset="0" style="stop-color:#F6D27B"/>
	<stop  offset="0.565" style="stop-color:#C4A55F"/>
	<stop  offset="1" style="stop-color:#A68B50"/>
</linearGradient>
<polygon class="st8" points="376.9,594.3 673.8,457.7 761.4,626.2 "/>
<path class="st2" d="M673.1,459.6l85.8,164.9l-376.1-31.2L673.1,459.6 M674.4,455.7l-2.6,1.2L381.4,590.5l-10.4,4.8l11.4,0.9
	l376.1,31.2l5.4,0.5l-2.5-4.8l-85.8-164.9L674.4,455.7L674.4,455.7z"/>
<linearGradient id="SVGID_8_" gradientUnits="userSpaceOnUse" x1="5804.0415" y1="-3220.4458" x2="5901.4937" y2="-2789.6829" gradientTransform="matrix(-0.458 -0.889 0.889 -0.458 5861.4419 4491.7041)">
	<stop  offset="0" style="stop-color:#A68B50"/>
	<stop  offset="0.58" style="stop-color:#D0B066"/>
	<stop  offset="1" style="stop-color:#F6D27B"/>
</linearGradient>
<polygon class="st9" points="380.6,595.2 766.1,627.3 406.3,885.7 "/>
<path class="st2" d="M382.3,596.8l379.6,31.6L407.6,882.9L382.3,596.8 M379,593.6l0.3,3.5l25.3,286.1l0.5,5.2l4.3-3.1l354.3-254.5
	l6.6-4.8l-8.1-0.7l-379.6-31.6L379,593.6L379,593.6z"/>
<linearGradient id="SVGID_9_" gradientUnits="userSpaceOnUse" x1="790.5638" y1="464.9229" x2="815.6902" y2="474.0691" gradientTransform="matrix(1 0 0 1 -1 -170.42)">
	<stop  offset="0" style="stop-color:#D0B26E"/>
	<stop  offset="1" style="stop-color:#B49B61"/>
</linearGradient>
<circle class="st10" cx="802.1" cy="299.1" r="13.4"/>
<linearGradient id="SVGID_10_" gradientUnits="userSpaceOnUse" x1="662.288" y1="516.7128" x2="664.512" y2="542.1352" gradientTransform="matrix(1 0 0 1 -1 -170.42)">
	<stop  offset="0" style="stop-color:#D0B26E"/>
	<stop  offset="1" style="stop-color:#B49B61"/>
</linearGradient>
<circle class="st11" cx="662.4" cy="359" r="12.8"/>
<linearGradient id="SVGID_11_" gradientUnits="userSpaceOnUse" x1="251.0741" y1="424.539" x2="281.9119" y2="413.315" gradientTransform="matrix(1 0 0 1 -1 -170.42)">
	<stop  offset="0" style="stop-color:#D0B26E"/>
	<stop  offset="1" style="stop-color:#B49B61"/>
</linearGradient>
<circle class="st12" cx="265.5" cy="248.5" r="16.4"/>
<linearGradient id="SVGID_12_" gradientUnits="userSpaceOnUse" x1="562.8696" y1="198.4234" x2="586.0684" y2="175.2246" gradientTransform="matrix(1 0 0 1 -1 -170.42)">
	<stop  offset="0" style="stop-color:#D0B26E"/>
	<stop  offset="1" style="stop-color:#B49B61"/>
</linearGradient>
<circle class="st13" cx="573.5" cy="16.4" r="16.4"/>
<linearGradient id="SVGID_13_" gradientUnits="userSpaceOnUse" x1="3.1951" y1="745.2809" x2="31.6129" y2="728.8751" gradientTransform="matrix(1 0 0 1 -1 -170.42)">
	<stop  offset="0" style="stop-color:#B49B61"/>
	<stop  offset="1" style="stop-color:#D0B26E"/>
</linearGradient>
<circle class="st14" cx="16.4" cy="566.7" r="16.4"/>
<linearGradient id="SVGID_14_" gradientUnits="userSpaceOnUse" x1="359.8762" y1="762.582" x2="386.1458" y2="772.1439" gradientTransform="matrix(1 0 0 1 -1 -170.42)">
	<stop  offset="0" style="stop-color:#B49B61"/>
	<stop  offset="1" style="stop-color:#D0B26E"/>
</linearGradient>
<circle class="st15" cx="372" cy="596.9" r="14"/>
<linearGradient id="SVGID_15_" gradientUnits="userSpaceOnUse" x1="499.222" y1="576.785" x2="519.8441" y2="597.407" gradientTransform="matrix(1 0 0 1 -1 -170.42)">
	<stop  offset="0" style="stop-color:#B49B61"/>
	<stop  offset="1" style="stop-color:#D0B26E"/>
</linearGradient>
<circle class="st16" cx="508.5" cy="416.7" r="14.6"/>
<linearGradient id="SVGID_16_" gradientUnits="userSpaceOnUse" x1="749.9095" y1="788.7192" x2="776.7866" y2="807.5387" gradientTransform="matrix(1 0 0 1 -1 -170.42)">
	<stop  offset="0" style="stop-color:#D0B26E"/>
	<stop  offset="1" style="stop-color:#B49B61"/>
</linearGradient>
<circle class="st17" cx="762.3" cy="627.7" r="16.4"/>
<linearGradient id="SVGID_17_" gradientUnits="userSpaceOnUse" x1="392.3784" y1="1070.9796" x2="419.8736" y2="1043.4844" gradientTransform="matrix(1 0 0 1 -1 -170.42)">
	<stop  offset="0" style="stop-color:#B49B61"/>
	<stop  offset="1" style="stop-color:#D0B26E"/>
</linearGradient>
<circle class="st18" cx="405.1" cy="886.8" r="19.4"/>
<linearGradient id="SVGID_18_" gradientUnits="userSpaceOnUse" x1="97.269" y1="260.96" x2="143.445" y2="260.96" gradientTransform="matrix(1 0 0 1 -1 -170.42)">
	<stop  offset="0" style="stop-color:#B49B61"/>
	<stop  offset="1" style="stop-color:#D0B26E"/>
</linearGradient>
<circle class="st19" cx="119.4" cy="90.5" r="23.1"/>
</svg>
